<svg xmlns="http://www.w3.org/2000/svg" xmlns:xlink="http://www.w3.org/1999/xlink" width="500" zoomAndPan="magnify" viewBox="0 0 375 374.999991" height="500" preserveAspectRatio="xMidYMid meet" version="1.0"><defs><g/><clipPath id="42903b17cd"><path d="M 20.160156 166.308594 L 354.839844 166.308594 L 354.839844 206.523438 L 20.160156 206.523438 Z M 20.160156 166.308594 " clip-rule="nonzero"/></clipPath></defs><g fill="#8c52ff" fill-opacity="1"><g transform="translate(39.648178, 259.53815)"><g><path d="M 7.082031 -41.082031 C 22.664062 -8.144531 44.089844 3.542969 72.421875 3.542969 C 95.621094 3.542969 115.453125 -8.324219 115.453125 -33.46875 C 115.453125 -57.371094 98.808594 -68.882812 65.339844 -91.195312 C 39.84375 -108.015625 32.050781 -113.503906 32.050781 -124.660156 C 32.050781 -134.222656 40.375 -141.484375 54.363281 -141.484375 C 77.382812 -141.484375 86.414062 -121.828125 91.546875 -102.347656 L 112.441406 -111.027344 C 96.507812 -135.285156 78.621094 -145.203125 56.132812 -145.203125 C 33.644531 -145.203125 15.40625 -134.578125 15.40625 -113.859375 C 15.40625 -94.734375 27.09375 -84.996094 55.957031 -65.339844 C 84.464844 -45.332031 98.984375 -35.945312 98.984375 -22.3125 C 98.984375 -8.324219 89.421875 -0.175781 74.546875 -0.175781 C 50.820312 -0.175781 33.820312 -22.664062 28.15625 -52.769531 Z M 7.082031 -41.082031 "/></g></g></g><g fill="#c9e265" fill-opacity="1"><g transform="translate(153.320049, 259.53815)"><g><path d="M 12.394531 0 L 20.007812 0 C 18.59375 -13.457031 18.0625 -21.425781 18.0625 -37.894531 L 18.0625 -132.628906 L 77.382812 3.542969 L 82.871094 3.542969 L 137.941406 -133.160156 L 137.941406 -37.894531 C 137.941406 -21.425781 137.410156 -13.457031 136.171875 0 L 169.636719 0 C 168.222656 -13.457031 167.867188 -21.425781 167.867188 -37.894531 L 167.867188 -103.765625 C 167.867188 -120.234375 168.222656 -128.203125 169.636719 -141.660156 L 137.585938 -141.660156 L 94.027344 -36.476562 L 47.277344 -141.660156 L 12.394531 -141.660156 C 13.8125 -128.203125 14.34375 -120.234375 14.34375 -103.765625 L 14.34375 -37.894531 C 14.34375 -21.425781 13.8125 -13.457031 12.394531 0 Z M 12.394531 0 "/></g></g></g><g clip-path="url(#42903b17cd)"><path fill="#fbfaf9" d="M 20.160156 166.308594 L 354.777344 166.308594 L 354.777344 207.8125 L 20.160156 207.8125 Z M 20.160156 166.308594 " fill-opacity="1" fill-rule="nonzero"/></g><g fill="#231f20" fill-opacity="1"><g transform="translate(70.507126, 190.540607)"><g><path d="M 3.984375 -8.734375 C 5.109375 -8.734375 6.125 -8.4375 7.03125 -7.84375 L 6.421875 -6.546875 C 5.535156 -7.085938 4.6875 -7.359375 3.875 -7.359375 C 3.4375 -7.359375 3.09375 -7.28125 2.84375 -7.125 C 2.59375 -6.96875 2.46875 -6.742188 2.46875 -6.453125 C 2.46875 -6.160156 2.582031 -5.914062 2.8125 -5.71875 C 3.039062 -5.519531 3.328125 -5.367188 3.671875 -5.265625 C 4.023438 -5.171875 4.40625 -5.050781 4.8125 -4.90625 C 5.21875 -4.769531 5.59375 -4.617188 5.9375 -4.453125 C 6.28125 -4.296875 6.566406 -4.046875 6.796875 -3.703125 C 7.023438 -3.359375 7.140625 -2.941406 7.140625 -2.453125 C 7.140625 -1.691406 6.832031 -1.082031 6.21875 -0.625 C 5.613281 -0.175781 4.828125 0.046875 3.859375 0.046875 C 3.203125 0.046875 2.5625 -0.0703125 1.9375 -0.3125 C 1.320312 -0.5625 0.785156 -0.898438 0.328125 -1.328125 L 0.953125 -2.59375 C 1.390625 -2.1875 1.867188 -1.875 2.390625 -1.65625 C 2.921875 -1.4375 3.421875 -1.328125 3.890625 -1.328125 C 4.398438 -1.328125 4.796875 -1.421875 5.078125 -1.609375 C 5.367188 -1.796875 5.515625 -2.050781 5.515625 -2.375 C 5.515625 -2.675781 5.394531 -2.925781 5.15625 -3.125 C 4.925781 -3.332031 4.640625 -3.484375 4.296875 -3.578125 C 3.953125 -3.671875 3.578125 -3.785156 3.171875 -3.921875 C 2.765625 -4.054688 2.390625 -4.195312 2.046875 -4.34375 C 1.703125 -4.5 1.410156 -4.742188 1.171875 -5.078125 C 0.941406 -5.421875 0.828125 -5.832031 0.828125 -6.3125 C 0.828125 -7.050781 1.113281 -7.640625 1.6875 -8.078125 C 2.269531 -8.515625 3.035156 -8.734375 3.984375 -8.734375 Z M 3.984375 -8.734375 "/></g></g></g><g fill="#231f20" fill-opacity="1"><g transform="translate(88.134692, 190.540607)"><g><path d="M 8.515625 -8.671875 L 8.515625 -3.59375 C 8.515625 -2.457031 8.175781 -1.5625 7.5 -0.90625 C 6.832031 -0.257812 5.910156 0.0625 4.734375 0.0625 C 3.566406 0.0625 2.644531 -0.257812 1.96875 -0.90625 C 1.300781 -1.5625 0.96875 -2.457031 0.96875 -3.59375 L 0.96875 -8.671875 L 2.421875 -8.671875 L 2.421875 -3.59375 C 2.421875 -2.863281 2.628906 -2.289062 3.046875 -1.875 C 3.472656 -1.457031 4.046875 -1.25 4.765625 -1.25 C 5.472656 -1.25 6.03125 -1.453125 6.4375 -1.859375 C 6.84375 -2.273438 7.046875 -2.851562 7.046875 -3.59375 L 7.046875 -8.671875 Z M 8.515625 -8.671875 "/></g></g></g><g fill="#231f20" fill-opacity="1"><g transform="translate(107.521191, 190.540607)"><g><path d="M 1.140625 -8.671875 L 4.90625 -8.671875 C 5.800781 -8.671875 6.507812 -8.476562 7.03125 -8.09375 C 7.550781 -7.707031 7.8125 -7.175781 7.8125 -6.5 C 7.8125 -6.019531 7.675781 -5.609375 7.40625 -5.265625 C 7.132812 -4.921875 6.765625 -4.691406 6.296875 -4.578125 C 6.867188 -4.472656 7.320312 -4.226562 7.65625 -3.84375 C 7.988281 -3.457031 8.15625 -2.96875 8.15625 -2.375 C 8.15625 -1.632812 7.875 -1.050781 7.3125 -0.625 C 6.75 -0.207031 5.976562 0 5 0 L 1.140625 0 Z M 2.609375 -7.375 L 2.609375 -5.078125 L 4.828125 -5.078125 C 5.296875 -5.078125 5.660156 -5.179688 5.921875 -5.390625 C 6.179688 -5.597656 6.3125 -5.882812 6.3125 -6.25 C 6.3125 -6.613281 6.179688 -6.890625 5.921875 -7.078125 C 5.660156 -7.273438 5.296875 -7.375 4.828125 -7.375 Z M 2.609375 -3.796875 L 2.609375 -1.296875 L 4.828125 -1.296875 C 5.410156 -1.296875 5.859375 -1.40625 6.171875 -1.625 C 6.492188 -1.84375 6.65625 -2.15625 6.65625 -2.5625 C 6.65625 -2.945312 6.492188 -3.25 6.171875 -3.46875 C 5.847656 -3.6875 5.398438 -3.796875 4.828125 -3.796875 Z M 2.609375 -3.796875 "/></g></g></g><g fill="#231f20" fill-opacity="1"><g transform="translate(126.189256, 190.540607)"><g><path d="M 8.65625 0 L 7.203125 0 L 7.203125 -3.59375 L 2.609375 -3.59375 L 2.609375 0 L 1.140625 0 L 1.140625 -8.671875 L 2.609375 -8.671875 L 2.609375 -4.90625 L 7.203125 -4.90625 L 7.203125 -8.671875 L 8.65625 -8.671875 Z M 8.65625 0 "/></g></g></g><g fill="#231f20" fill-opacity="1"><g transform="translate(145.910194, 190.540607)"><g><path d="M 6.734375 -1.953125 L 2.359375 -1.953125 L 1.53125 0 L 0.015625 0 L 3.84375 -8.671875 L 5.34375 -8.671875 L 9.125 0 L 7.578125 0 Z M 6.1875 -3.265625 L 4.546875 -7.109375 L 2.90625 -3.265625 Z M 6.1875 -3.265625 "/></g></g></g><g fill="#231f20" fill-opacity="1"><g transform="translate(164.97463, 190.540607)"><g><path d="M 1.140625 -8.671875 L 4.703125 -8.671875 C 5.992188 -8.671875 7.0625 -8.257812 7.90625 -7.4375 C 8.757812 -6.625 9.1875 -5.585938 9.1875 -4.328125 C 9.1875 -3.078125 8.757812 -2.039062 7.90625 -1.21875 C 7.050781 -0.40625 5.96875 0 4.65625 0 L 1.140625 0 Z M 2.609375 -7.359375 L 2.609375 -1.3125 L 4.734375 -1.3125 C 5.585938 -1.3125 6.296875 -1.59375 6.859375 -2.15625 C 7.421875 -2.726562 7.703125 -3.453125 7.703125 -4.328125 C 7.703125 -5.203125 7.410156 -5.925781 6.828125 -6.5 C 6.242188 -7.070312 5.523438 -7.359375 4.671875 -7.359375 Z M 2.609375 -7.359375 "/></g></g></g><g fill="#231f20" fill-opacity="1"><g transform="translate(184.497379, 190.540607)"><g><path d="M 2.609375 0 L 1.140625 0 L 1.140625 -8.671875 L 2.609375 -8.671875 Z M 2.609375 0 "/></g></g></g><g fill="#231f20" fill-opacity="1"><g transform="translate(198.161166, 190.540607)"><g><path d="M 1.140625 -8.671875 L 4.59375 -8.671875 C 5.6875 -8.671875 6.53125 -8.410156 7.125 -7.890625 C 7.726562 -7.378906 8.03125 -6.65625 8.03125 -5.71875 C 8.03125 -4.726562 7.726562 -3.960938 7.125 -3.421875 C 6.53125 -2.878906 5.6875 -2.609375 4.59375 -2.609375 L 2.609375 -2.609375 L 2.609375 0 L 1.140625 0 Z M 2.609375 -7.359375 L 2.609375 -3.921875 L 4.53125 -3.921875 C 5.925781 -3.921875 6.625 -4.503906 6.625 -5.671875 C 6.625 -6.796875 5.925781 -7.359375 4.53125 -7.359375 Z M 2.609375 -7.359375 "/></g></g></g><g fill="#231f20" fill-opacity="1"><g transform="translate(216.420454, 190.540607)"><g/></g></g><g fill="#231f20" fill-opacity="1"><g transform="translate(229.539227, 190.540607)"><g><path d="M 10.3125 0 L 8.953125 0 L 8.953125 -6.484375 L 6.203125 -0.90625 L 5.25 -0.90625 L 2.515625 -6.484375 L 2.515625 0 L 1.140625 0 L 1.140625 -8.671875 L 2.875 -8.671875 L 5.734375 -2.90625 L 8.59375 -8.671875 L 10.3125 -8.671875 Z M 10.3125 0 "/></g></g></g><g fill="#231f20" fill-opacity="1"><g transform="translate(250.919993, 190.540607)"><g><path d="M 6.734375 -1.953125 L 2.359375 -1.953125 L 1.53125 0 L 0.015625 0 L 3.84375 -8.671875 L 5.34375 -8.671875 L 9.125 0 L 7.578125 0 Z M 6.1875 -3.265625 L 4.546875 -7.109375 L 2.90625 -3.265625 Z M 6.1875 -3.265625 "/></g></g></g><g fill="#231f20" fill-opacity="1"><g transform="translate(269.984429, 190.540607)"><g><path d="M 2.609375 0 L 1.140625 0 L 1.140625 -8.671875 L 2.609375 -8.671875 Z M 2.609375 0 "/></g></g></g><g fill="#231f20" fill-opacity="1"><g transform="translate(283.648216, 190.540607)"><g><path d="M 7.0625 -7.359375 L 4.3125 -7.359375 L 4.3125 0 L 2.84375 0 L 2.84375 -7.359375 L 0.109375 -7.359375 L 0.109375 -8.671875 L 7.0625 -8.671875 Z M 7.0625 -7.359375 "/></g></g></g><g fill="#231f20" fill-opacity="1"><g transform="translate(300.743148, 190.540607)"><g><path d="M 2.609375 0 L 1.140625 0 L 1.140625 -8.671875 L 2.609375 -8.671875 Z M 2.609375 0 "/></g></g></g></svg>